<svg xmlns="http://www.w3.org/2000/svg" xmlns:xlink="http://www.w3.org/1999/xlink" width="356.543" height="124.11" viewBox="0 0 356.543 124.11"><defs><clipPath id="a"><rect width="356.542" height="124.11" fill="none"/></clipPath></defs><g transform="translate(0.001)" clip-path="url(#a)"><g clip-path="url(#a)"><g transform="translate(160.851 21.524)"><path d="M349,119.528v-7.522a16.4,16.4,0,0,1,5.664-12.478A19.524,19.524,0,0,1,368.382,94.3a18.741,18.741,0,0,1,12.883,4.758,15.316,15.316,0,0,1,5.356,11.962,12.1,12.1,0,0,1-.662,4.344,4.321,4.321,0,0,1-2.033,2.41,8.43,8.43,0,0,1-2.521.879,20.671,20.671,0,0,1-3.01.175H360.418v1.33a7.6,7.6,0,0,0,2.846,6.142,11.408,11.408,0,0,0,7.522,2.346,14.392,14.392,0,0,0,6.639-1.684,13.518,13.518,0,0,1,4.247-1.684,3.681,3.681,0,0,1,3.1,1.726,5.743,5.743,0,0,1,1.237,3.317q0,2.479-4.472,4.914a23,23,0,0,1-11.107,2.434,23.247,23.247,0,0,1-15.445-5A16.3,16.3,0,0,1,349,119.528Zm11.415-7.421h12.924a3.273,3.273,0,0,0,1.992-.46,2.173,2.173,0,0,0,.575-1.775,5.774,5.774,0,0,0-2.259-4.711,9.2,9.2,0,0,0-10.936-.042,5.618,5.618,0,0,0-2.3,4.67Z" transform="translate(-348.994 -75.354)" fill="#0089fe"/><path d="M442.291,119.524v-7.255a18.542,18.542,0,0,1,4.644-12.7A14.509,14.509,0,0,1,458.221,94.3a13.162,13.162,0,0,1,7.126,1.964,13.407,13.407,0,0,1,4.734,4.822V98.4a2.977,2.977,0,0,1,1.518-2.586,6.823,6.823,0,0,1,3.805-.984,7.361,7.361,0,0,1,3.895.975,2.923,2.923,0,0,1,1.592,2.568v54.428a3.092,3.092,0,0,1-1.637,2.521,7.03,7.03,0,0,1-4.025,1.1,7.233,7.233,0,0,1-4.072-1.109,3.1,3.1,0,0,1-1.684-2.526V130.625a12.251,12.251,0,0,1-4.644,5,12.883,12.883,0,0,1-7.026,2.052,13.92,13.92,0,0,1-10.8-5.489A18.9,18.9,0,0,1,442.291,119.524Zm11.42-.027a7.9,7.9,0,0,0,2.388,5.576,7.384,7.384,0,0,0,5.489,2.5,7.573,7.573,0,0,0,5.489-2.374,6.484,6.484,0,0,0,2.388-4.141V112.3a7.468,7.468,0,0,0-2.346-5.709,7.624,7.624,0,0,0-5.356-2.195,7.7,7.7,0,0,0-5.664,2.415,7.6,7.6,0,0,0-2.388,5.489Z" transform="translate(-399.361 -75.351)" fill="#0089fe"/><path d="M544.63,120.324V99.082a3.146,3.146,0,0,1,1.726-2.479,7.1,7.1,0,0,1,4.025-1.151,6.957,6.957,0,0,1,3.943,1.169,3.146,3.146,0,0,1,1.726,2.47v21.163a7.821,7.821,0,0,0,2.3,5.52,7.306,7.306,0,0,0,5.489,2.425,7.168,7.168,0,0,0,5.443-2.425,7.881,7.881,0,0,0,2.247-5.52V98.982a2.977,2.977,0,0,1,1.726-2.47,7.55,7.55,0,0,1,4.025-1.058,7.2,7.2,0,0,1,4.072,1.062A3.005,3.005,0,0,1,582.943,99v21.33a16.862,16.862,0,0,1-5.664,12.569,19.517,19.517,0,0,1-26.952,0A16.808,16.808,0,0,1,544.63,120.324Z" transform="translate(-454.616 -75.972)" fill="#0089fe"/><path d="M645.05,58.172a4.412,4.412,0,0,1,1.881-3.565,7.257,7.257,0,0,1,4.634-1.482,6.3,6.3,0,0,1,4.219,1.482,4.467,4.467,0,0,1,0,7.086,6.2,6.2,0,0,1-4.219,1.524,7.122,7.122,0,0,1-4.634-1.524A4.435,4.435,0,0,1,645.05,58.172Zm1.062,52.84V76.139a2.941,2.941,0,0,1,1.533-2.568,7.182,7.182,0,0,1,3.916-.975,7.408,7.408,0,0,1,3.956.975,2.926,2.926,0,0,1,1.573,2.568v34.871a3.146,3.146,0,0,1-1.661,2.479,6.621,6.621,0,0,1-3.87,1.151,6.551,6.551,0,0,1-3.869-1.1,3.131,3.131,0,0,1-1.578-2.521Z" transform="translate(-508.833 -53.121)" fill="#0089fe"/><path d="M690.64,152.808V98.375a2.93,2.93,0,0,1,1.546-2.568,7.1,7.1,0,0,1,3.851-.975,6.827,6.827,0,0,1,3.805.984,2.981,2.981,0,0,1,1.5,2.59v2.682a14.166,14.166,0,0,1,4.827-4.818,13.159,13.159,0,0,1,7.126-1.964,14.382,14.382,0,0,1,11.236,5.267,18.649,18.649,0,0,1,4.6,12.7v7.255a18.908,18.908,0,0,1-4.693,12.657,13.92,13.92,0,0,1-10.786,5.492,12.666,12.666,0,0,1-7.031-2.108,12.041,12.041,0,0,1-4.56-4.956V152.8a3.09,3.09,0,0,1-1.726,2.526,7.458,7.458,0,0,1-4.118,1.109,6.818,6.818,0,0,1-3.985-1.1,3.1,3.1,0,0,1-1.591-2.52Zm11.42-31.746a6.525,6.525,0,0,0,2.388,4.141,7.471,7.471,0,0,0,5.393,2.374,7.39,7.39,0,0,0,5.489-2.5,7.894,7.894,0,0,0,2.388-5.576v-7.191a7.6,7.6,0,0,0-2.388-5.489,7.681,7.681,0,0,0-13.273,5.484Z" transform="translate(-533.449 -75.358)" fill="#0089fe"/></g><g transform="translate(0 0.001)"><path d="M195.388,192.41a103.442,103.442,0,0,0-5.029-18.76q-4.595.786-8.921,1.234a97.122,97.122,0,0,1,5.27,18.888,14.6,14.6,0,1,0,8.689-1.362Zm-2.2,20.264a5.82,5.82,0,1,1,5.82-5.82,5.82,5.82,0,0,1-5.82,5.82Z" transform="translate(-100.152 -97.348)" fill="#0089fe"/><path d="M81.049,20.569a14.618,14.618,0,1,0-5.85,6.55,134.319,134.319,0,0,1,27.948,33.821c3.074-.15,6.259-.439,9.588-.834A142.048,142.048,0,0,0,81.049,20.569Zm-13.309-.18a5.82,5.82,0,1,1,4.117-1.707,5.82,5.82,0,0,1-4.117,1.707Z" transform="translate(-29.777 0.063)" fill="#0089fe"/><path d="M192.988,0a14.6,14.6,0,0,0-13.313,20.6A148.576,148.576,0,0,0,164.15,36.414q2.965,3.6,5.495,7.134a139.334,139.334,0,0,1,15.887-16.4A14.6,14.6,0,1,0,192.988,0Zm0,20.425a5.82,5.82,0,1,1,5.82-5.82,5.82,5.82,0,0,1-5.82,5.82Z" transform="translate(-92.046 0.028)" fill="#fbe625"/><path d="M106.978,122.936q-2.464-3.835-5.451-7.836A129.72,129.72,0,0,0,90.2,136.719a106.77,106.77,0,0,0-6.592,22.841,14.614,14.614,0,1,0,8.689,1.362,98.862,98.862,0,0,1,6.193-21.273,119.812,119.812,0,0,1,8.491-16.717Zm-21.2,56.9a5.82,5.82,0,1,1,5.82-5.82,5.82,5.82,0,0,1-5.82,5.82Z" transform="translate(-39.911 -64.517)" fill="#fbe625"/><path d="M212.75,101.182h0a14.6,14.6,0,0,0-21.962,12.734,134.643,134.643,0,0,1-41.825,7.116c-1.655,3.017-3.1,5.938-4.353,8.737,1.146.031,2.31.052,3.514.052a143.194,143.194,0,0,0,45.383-7.546,14.6,14.6,0,1,0,19.238-21.084Zm-2.328,15.552a5.816,5.816,0,1,1,.6-4.417,5.816,5.816,0,0,1-.6,4.417Z" transform="translate(-81.088 -55.592)" fill="#00ece2"/><path d="M21.958,100.762a14.6,14.6,0,1,0,4.01,21.782,104.124,104.124,0,0,0,19.586,5.27q.475-1.269,1-2.587c.739-1.814,1.577-3.745,2.526-5.768a97.816,97.816,0,0,1-19.924-5.117,14.618,14.618,0,0,0-7.2-13.58ZM19.628,116.3a5.816,5.816,0,1,1,.6-4.414A5.816,5.816,0,0,1,19.628,116.3Z" transform="translate(0.007 -55.355)" fill="#00ece2"/></g></g></g></svg>